<svg width="30" height="30" viewBox="0 0 36 36" fill="none">
  <circle cx="18" cy="18" r="4.5" fill="#FFFFFF"/>
  <circle cx="18" cy="6" r="3" fill="#FFFFFF" opacity="0.75"/>
  <circle cx="30" cy="18" r="3" fill="#FFFFFF" opacity="0.75"/>
  <circle cx="18" cy="30" r="3" fill="#FFFFFF" opacity="0.75"/>
  <circle cx="6" cy="18" r="3" fill="#FFFFFF" opacity="0.75"/>
  <circle cx="27" cy="9" r="2.2" fill="#FFFFFF" opacity="0.45"/>
  <circle cx="27" cy="27" r="2.2" fill="#FFFFFF" opacity="0.45"/>
  <circle cx="9" cy="27" r="2.2" fill="#FFFFFF" opacity="0.45"/>
  <circle cx="9" cy="9" r="2.2" fill="#FFFFFF" opacity="0.45"/>

  <path d="M18 10.5L18 13.5M22.5 18L25 18M18 22.5L18 25M13.5 18L11 18"
        stroke="#FFFFFF"
        stroke-width="1.5"
        stroke-linecap="round"/>

  <path d="M21 13.5L24 10.5M21 22.5L24 25.5M15 22.5L12 25.5M15 13.5L12 10.5"
        stroke="#FFFFFF"
        stroke-width="1.2"
        stroke-linecap="round"
        opacity="0.45"/>
</svg>